<?xml version="1.0" encoding="UTF-8" standalone="no"?>
<!-- Created with Inkscape (http://www.inkscape.org/) -->

<svg
   xmlns:dc="http://purl.org/dc/elements/1.1/"
   xmlns:cc="http://creativecommons.org/ns#"
   xmlns:rdf="http://www.w3.org/1999/02/22-rdf-syntax-ns#"
   xmlns:svg="http://www.w3.org/2000/svg"
   xmlns="http://www.w3.org/2000/svg"
   xmlns:xlink="http://www.w3.org/1999/xlink"
   xmlns:sodipodi="http://sodipodi.sourceforge.net/DTD/sodipodi-0.dtd"
   xmlns:inkscape="http://www.inkscape.org/namespaces/inkscape"
   width="744.09448819"
   height="1052.3622047"
   id="svg3032"
   version="1.1"
   inkscape:version="0.48.4 r9939"
   sodipodi:docname="logo2.svg"
   inkscape:export-filename="C:\Users\pcipov\zoorilla\graphics\logo2.png"
   inkscape:export-xdpi="189.23741"
   inkscape:export-ydpi="189.23741">
  <defs
     id="defs3034">
    <linearGradient
       inkscape:collect="always"
       id="linearGradient3869">
      <stop
         style="stop-color:#9b9b9b;stop-opacity:1;"
         offset="0"
         id="stop3871" />
      <stop
         style="stop-color:#9b9b9b;stop-opacity:0;"
         offset="1"
         id="stop3873" />
    </linearGradient>
    <linearGradient
       inkscape:collect="always"
       id="linearGradient3853">
      <stop
         style="stop-color:#a5a5a5;stop-opacity:1;"
         offset="0"
         id="stop3855" />
      <stop
         style="stop-color:#e6e6e6;stop-opacity:1"
         offset="1"
         id="stop3857" />
    </linearGradient>
    <linearGradient
       inkscape:collect="always"
       xlink:href="#linearGradient3853"
       id="linearGradient3859"
       x1="402.30853"
       y1="506.08014"
       x2="394.6886"
       y2="569.04901"
       gradientUnits="userSpaceOnUse"
       gradientTransform="translate(-112.34213,-90.517707)" />
    <linearGradient
       inkscape:collect="always"
       xlink:href="#linearGradient3869"
       id="linearGradient3875"
       x1="262.62534"
       y1="476.02686"
       x2="289.9664"
       y2="415.56244"
       gradientUnits="userSpaceOnUse" />
  </defs>
  <sodipodi:namedview
     id="base"
     pagecolor="#ffffff"
     bordercolor="#666666"
     borderopacity="1.0"
     inkscape:pageopacity="0.0"
     inkscape:pageshadow="2"
     inkscape:zoom="2.7950332"
     inkscape:cx="460.32728"
     inkscape:cy="606.71205"
     inkscape:document-units="px"
     inkscape:current-layer="layer2"
     showgrid="false"
     inkscape:window-width="1680"
     inkscape:window-height="988"
     inkscape:window-x="-8"
     inkscape:window-y="-8"
     inkscape:window-maximized="1" />
  <metadata
     id="metadata3037">
    <rdf:RDF>
      <cc:Work
         rdf:about="">
        <dc:format>image/svg+xml</dc:format>
        <dc:type
           rdf:resource="http://purl.org/dc/dcmitype/StillImage" />
        <dc:title></dc:title>
      </cc:Work>
    </rdf:RDF>
  </metadata>
  <g
     inkscape:label="Layer 1"
     inkscape:groupmode="layer"
     id="layer1"
     sodipodi:insensitive="true"
     style="display:none">
    <image
       y="322.36218"
       x="185.71428"
       id="image3048"
       xlink:href="file:///C:/Users/pcipov/Desktop/sf-creative-logo.jpg"
       height="260"
       width="320" />
  </g>
  <g
     inkscape:groupmode="layer"
     id="layer2"
     inkscape:label="Layer"
     style="display:inline">
    <path
       style="fill:#a5a5a5;fill-opacity:1;stroke:none"
       d="m 332.73722,417.33097 c -2.35364,0 -4.25,1.60479 -4.25,3.59656 l 0,9.46743 c -0.40805,4.83645 -1.42008,13.45662 -4.65625,15.97296 -7.85906,6.11096 -4.99806,3.74972 -7.03125,5.07751 0.38098,1.22025 1.90625,2.96187 1.90625,2.96187 0,0 6.09683,-2.83239 9.78125,-6.77 l 0,21.26203 c 0,1.99176 1.89636,3.57012 4.25,3.57012 l 39.8125,0 c 2.35364,0 4.25,-1.57836 4.25,-3.57012 l 0,-47.9718 c 0,-1.99177 -1.89636,-3.59656 -4.25,-3.59656 l -22.90625,0 c 4.95772,1.67887 8.4375,5.60509 8.4375,10.18145 0,6.10181 -6.18258,11.05414 -13.8125,11.05414 -0.13496,0 -0.27222,-0.023 -0.40625,-0.0264 7.09831,-0.18232 12.78125,-5.04134 12.78125,-11.02769 0,-4.5979 -3.35364,-8.52183 -8.125,-10.18145 l -15.78125,0 z m 3.96875,5.9502 c 0.99635,0 1.8125,0.6557 1.8125,1.45449 0,0.79878 -0.81615,1.45449 -1.8125,1.45449 -0.99635,0 -1.8125,-0.65571 -1.8125,-1.45449 0,-0.79879 0.81615,-1.45449 1.8125,-1.45449 z"
       id="rect3054"
       inkscape:connector-curvature="0" />
    <text
       xml:space="preserve"
       style="font-size:40px;font-style:normal;font-weight:normal;line-height:125%;letter-spacing:0px;word-spacing:0px;fill:#666666;fill-opacity:1;stroke:none;font-family:Sans"
       x="391.05121"
       y="462.42679"
       id="text3074"
       sodipodi:linespacing="125%"><tspan
         sodipodi:role="line"
         id="tspan3076"
         x="391.05121"
         y="462.42679">ZOORILLA</tspan></text>
  </g>
</svg>
