<?xml version="1.0" encoding="UTF-8" standalone="no"?>
<!-- Created with Inkscape (http://www.inkscape.org/) -->

<svg
   xmlns:dc="http://purl.org/dc/elements/1.1/"
   xmlns:cc="http://creativecommons.org/ns#"
   xmlns:rdf="http://www.w3.org/1999/02/22-rdf-syntax-ns#"
   xmlns:svg="http://www.w3.org/2000/svg"
   xmlns="http://www.w3.org/2000/svg"
   xmlns:sodipodi="http://sodipodi.sourceforge.net/DTD/sodipodi-0.dtd"
   xmlns:inkscape="http://www.inkscape.org/namespaces/inkscape"
   width="145.10765"
   height="67.297325"
   id="svg2"
   version="1.1"
   inkscape:version="0.48.4 r9939"
   sodipodi:docname="logo.svg"
   inkscape:export-filename="C:\Users\pcipov\zoorilla\graphics\logo.png"
   inkscape:export-xdpi="66.867447"
   inkscape:export-ydpi="66.867447">
  <defs
     id="defs4" />
  <sodipodi:namedview
     id="base"
     pagecolor="#ffffff"
     bordercolor="#666666"
     borderopacity="1.0"
     inkscape:pageopacity="0.0"
     inkscape:pageshadow="2"
     inkscape:zoom="8.531597"
     inkscape:cx="75.494351"
     inkscape:cy="33.648663"
     inkscape:document-units="px"
     inkscape:current-layer="layer1"
     showgrid="false"
     inkscape:window-width="1680"
     inkscape:window-height="988"
     inkscape:window-x="-8"
     inkscape:window-y="-8"
     inkscape:window-maximized="1"
     fit-margin-top="0"
     fit-margin-left="0"
     fit-margin-right="0"
     fit-margin-bottom="0" />
  <metadata
     id="metadata7">
    <rdf:RDF>
      <cc:Work
         rdf:about="">
        <dc:format>image/svg+xml</dc:format>
        <dc:type
           rdf:resource="http://purl.org/dc/dcmitype/StillImage" />
        <dc:title />
      </cc:Work>
    </rdf:RDF>
  </metadata>
  <g
     inkscape:label="Layer 1"
     inkscape:groupmode="layer"
     id="layer1"
     transform="translate(-236.79507,-630.13953)">
    <path
       style="fill:#a5a5a5;fill-opacity:1;stroke:none"
       d="m 237,658.28436 20.80026,0.66602 c 0,0 -2.25422,-2.92023 -2.25422,-4.25227 0,-1.33204 -3.48378,-2.45914 -3.79118,-3.38132 -0.30739,-0.92218 -0.51232,-2.45915 -0.51232,-2.45915 l 4.09858,-0.10246 1.1271,1.74189 0.71725,-1.74189 4.40597,0 c 0,0 -3.68871,4.81582 -2.76653,5.63554 0.92218,0.81971 1.84435,-4.81583 6.45525,-5.84047 4.61089,-1.02464 9.22179,-0.10246 11.06614,1.4345 1.84436,1.53697 3.68872,3.48379 2.45915,5.32815 -1.22957,1.84435 -2.66408,3.63748 -2.66408,3.63748 l 6.45526,0 -0.40986,-9.88781 -2.869,3.89365 3.07393,-6.86511 c 0,0 0.61479,-3.68872 2.869,-3.89365 2.25422,-0.20493 6.66019,-0.61479 7.78729,0.40986 1.12711,1.02464 2.45914,1.4345 2.45914,1.4345 0,0 0.40986,-2.25422 1.4345,-2.76654 1.02465,-0.51232 2.86901,1.63943 3.1764,2.35668 0.30739,0.71725 2.15175,0.40986 2.869,1.63943 0.71725,1.22957 1.53696,3.99611 1.53696,3.99611 l -0.40985,9.68288 -0.71725,-7.12127 -5.63554,-0.10247 -0.61479,7.22374 8.9144,0 3.99611,0 0.20493,-11.83463 -1.63943,-0.71725 c 0,0 -1.065,-0.73778 -0.71725,-1.22957 0.34775,-0.49179 0.7724,0.63025 2.15175,0.40986 1.37935,-0.2204 4.22056,0.84571 6.14786,-1.43451 1.9273,-2.28022 0.71725,-11.57847 0.71725,-11.57847 0,0 1.12711,0.20493 1.33204,-0.92217 0.20492,-1.12711 1.22957,-2.04929 1.63942,-1.12711 0.40986,0.92218 0.20493,1.4345 0.92218,1.63943 0.71725,0.20493 2.45915,1.33203 1.63943,1.74189 -0.81971,0.40986 -3.38132,-0.10246 -3.38132,0.61479 0,0.71725 0,8.50454 -0.61479,10.55382 -0.61478,2.04929 -1.1271,5.53308 -1.1271,5.53308 l -0.20493,8.35084 7.58236,0 c 0,0 0,-4.86706 0.30739,-5.37938 0.30739,-0.51232 1.74189,-2.76653 0.71725,-2.869 -1.02464,-0.10246 -0.92218,-2.56161 -0.92218,-2.56161 l 1.33204,-1.63943 9.83657,0.10247 5.94294,7.27497 0.20492,5.22568 5.94294,0 0.10246,-4.71336 c 1.67193,-2.60301 -0.13079,-2.29818 -0.10246,-3.07393 -1.84436,-0.10247 -2.25422,-0.81972 -2.25422,-0.81972 l 2.25422,0.20493 2.869,-5.738 c 0,0 1.22957,-2.45915 2.35668,-0.20493 1.1271,2.25422 2.15175,4.09857 2.15175,4.09857 0,0 -0.10022,2.16683 2.15175,-0.61478 2.48452,-3.06886 2.03715,-5.69945 3.79118,-4.20104 1.88593,1.61109 2.45914,3.89364 0.51232,3.07393 -1.94683,-0.81972 -3.38132,3.89364 -3.38132,3.89364 0.1367,-0.94501 -0.3308,5.48037 -0.10247,6.96757 0.20919,1.36256 1.4345,1.33204 1.4345,1.33204 l 15.77951,0 c 1.11315,0.96796 -38.42702,38.87115 -67.11414,38.11674 -28.68712,-0.75441 -41.77929,-21.03082 -57.38002,-35.3502 -2.82988,-2.59744 -10.45829,0.15639 -14.34501,2.04929 z"
       id="path3786"
       inkscape:connector-curvature="0"
       sodipodi:nodetypes="ccsscccccsssscccccsscsssccccccccczzzcsssssscccsscccccccccccscssscscczscc" />
    <path
       style="fill:#ffffff;fill-opacity:1;stroke:none"
       d="m 285.97795,654.69811 c 0.10247,4.50843 0.10247,4.41307 0.10247,4.41307 l 8.19714,0 -0.10246,-4.41307 z"
       id="path3788"
       inkscape:connector-curvature="0"
       sodipodi:nodetypes="ccccc" />
    <path
       style="fill:#ffffff;fill-opacity:1;stroke:none"
       d="m 312.82361,650.29214 -1.33204,8.67304 4.20104,0 -0.51232,-9.39029 z"
       id="path3790"
       inkscape:connector-curvature="0"
       sodipodi:nodetypes="ccccc" />
    <path
       style="fill:#ffffff;fill-opacity:1;stroke:none"
       d="m 326.65629,653.05868 -0.51232,6.14786 1.33204,0 -0.40986,-3.58625 z"
       id="path3792"
       inkscape:connector-curvature="0"
       sodipodi:nodetypes="ccccc" />
    <path
       style="fill:#ffffff;fill-opacity:1;stroke:none"
       d="m 329.52529,659.04718 -0.40986,-0.96775 -0.71725,-0.71725 0,-3.58625 0.92218,-2.15175 1.84436,1.02464 3.27886,0 -1.4345,2.66408 0,3.73428 1.63943,0 -0.51232,-2.19732 1.1271,-2.15175 0.81972,-0.30739 0,4.65646 2.25421,0 -1.02464,-0.76282 -0.10246,-5.32814 0.92218,0.10246 0.92217,4.3035 2.04929,1.685 -11.06615,0 z"
       id="path3794"
       inkscape:connector-curvature="0"
       sodipodi:nodetypes="cccccccccccccccccccccc" />
    <path
       style="fill:#ffffff;fill-opacity:1;stroke:none"
       d="m 349.6083,659.29018 0.20493,-4.38714 1.02464,-0.40986 0.3074,4.797 z"
       id="path3796"
       inkscape:connector-curvature="0"
       sodipodi:nodetypes="ccccc" />
    <path
       style="fill:#ffffff;fill-opacity:1;stroke:none"
       d="m 352.88716,659.29018 -0.81972,-4.59207 3.07393,-1.94682 -0.40985,6.53889 z"
       id="path3798"
       inkscape:connector-curvature="0"
       sodipodi:nodetypes="ccccc" />
    <path
       style="fill:#ffffff;fill-opacity:1;stroke:none"
       d="m 356.98573,652.34143 -1.1271,6.91634 1.53696,0 z"
       id="path3800"
       inkscape:connector-curvature="0"
       sodipodi:nodetypes="cccc" />
    <path
       style="fill:none;stroke:none"
       d="m 264.79926,675.9761 c 38.17444,31.36652 70.20202,15.11326 117.10346,-16.17381"
       id="path3806"
       inkscape:connector-curvature="0"
       sodipodi:nodetypes="cc" />
  </g>
</svg>
